<?xml version="1.0"?>
<svg xmlns="http://www.w3.org/2000/svg" height="512px" viewBox="0 0 443.07692 443.07692" width="512px"><g><path d="m404.792969 97.003906c10.527343-8.859375 21.378906-17.664062 32.492187-26.21875 3.605469-2.800781 4.816406-7.707031 2.925782-11.863281-1.894532-4.152344-6.394532-6.460937-10.871094-5.574219-1.554688.3125-17.632813 3.800782-46.277344 16.570313-81.421875-86.742188-216.824219-93.6875-306.691406-15.726563-89.871094 77.957032-102.121094 212.980469-27.746094 305.839844s208.8125 110.394531 304.519531 39.71875c95.703125-70.675781 118.496094-204.324219 51.628907-302.726562zm-34.332031.808594c2.578124-1.3125 5.082031-2.554688 7.511718-3.722656-90.03125 78.867187-154.789062 163.179687-175.339844 191.210937l-79.125-80.550781 65.054688 15.753906c3.089844.75 6.347656-.039062 8.753906-2.117187 75.914063-65.671875 136.0625-101.816407 173.144532-120.574219zm-139.628907 326.066406v-16.070312c0-5.4375-4.40625-9.847656-9.84375-9.847656-5.441406 0-9.847656 4.410156-9.847656 9.847656v16.078125c-103.789063-5-187.324219-88.535157-192.316406-192.324219h16.070312c5.4375 0 9.84375-4.410156 9.84375-9.847656s-4.40625-9.84375-9.84375-9.84375h-16.070312c4.992187-103.789063 88.527343-187.324219 192.316406-192.316406v16.070312c0 5.4375 4.40625 9.84375 9.847656 9.84375 5.4375 0 9.84375-4.40625 9.84375-9.84375v-16.058594c50.296875 2.472656 97.867188 23.585938 133.445313 59.222656-41.421875 20.675782-101.308594 57.285157-176.019532 121.394532l-93.648437-22.648438c-4.273437-1.039062-8.71875.886719-10.886719 4.710938-2.171875 3.824218-1.539062 8.628906 1.542969 11.761718l111.519531 113.4375c1.847656 1.886719 4.378906 2.953126 7.019532 2.953126.285156.015624.570312.015624.855468 0 2.929688-.253907 5.589844-1.800782 7.257813-4.222657.796875-1.152343 71.019531-102.398437 177.832031-196.183593 20.183594 30.292968 31.730469 65.515624 33.398438 101.878906h-16.070313c-5.4375 0-9.84375 4.40625-9.84375 9.84375s4.40625 9.847656 9.84375 9.847656h16.078125c-5 103.789062-88.535156 187.324219-192.324219 192.316406zm0 0" data-original="#000000" class="active-path" data-old_color="#ff2900" fill="#ff2900"/></g> </svg>
