<svg width="1295" height="2590" viewBox="0 0 1295 2590" version="1.1" xmlns="http://www.w3.org/2000/svg" xmlns:xlink="http://www.w3.org/1999/xlink"><title>apple-iphone_xs-space_gray</title><desc>Created with Sketch.</desc><defs><path d="M0,0 L1295,0 L1295,2590 L0,2590 L0,0 Z M961,103 L961,104 C961,131.793939 939.793939,167 891,167 L405,167 C356.206061,167 335,131.793939 335,104 L335,102.999994 C335,90.1450152 334.999996,77 312.000025,77 L215,77 C133.934969,77 85,125.934969 85,207 L85,2383 C85,2464.06503 133.934969,2513 215,2513 L1080,2513 C1161.06503,2513 1210,2464.06503 1210,2383 L1210,207 C1210,125.934969 1161.06503,77 1080,77 L984,77 C961,77 961,90.1450195 961,103 Z" id="path-1"/><linearGradient x1="50%" y1="0%" x2="50%" y2="100%" id="linearGradient-3"><stop stop-color="#C9C6C8" offset="0%"/><stop stop-color="#716D6D" offset="1.683%"/><stop stop-color="#C9C6C8" offset="7.825%"/><stop stop-color="#C9C6C8" offset="92.056%"/><stop stop-color="#716D6D" offset="98.043%"/><stop stop-color="#C9C6C8" offset="100%"/></linearGradient><path d="M227,6 C75.4845991,6 6,77.8367478 6,227 L6,2363 C6,2512.16325 75.4845991,2584 227,2584 L1052,2584 C1198.57602,2584 1273,2507.0986 1273,2363 L1273,227 C1273,77.8367478 1203.5154,6 1052,6 L227,6 Z" id="path-4"/><filter x="-.5%" y="-.3%" width="101%" height="100.5%" filterUnits="objectBoundingBox" id="filter-5"><feMorphology radius="5" operator="erode" in="SourceAlpha" result="shadowSpreadInner1"/><feGaussianBlur stdDeviation="4" in="shadowSpreadInner1" result="shadowBlurInner1"/><feOffset dx="0" dy="0" in="shadowBlurInner1" result="shadowOffsetInner1"/><feComposite in="shadowOffsetInner1" in2="SourceAlpha" operator="arithmetic" k2="-1" k3="1" result="shadowInnerInner1"/><feColorMatrix values="0 0 0 0 0 0 0 0 0 0 0 0 0 0 0 0 0 0 0.6 0" type="matrix" in="shadowInnerInner1"/></filter><linearGradient x1="50%" y1="0%" x2="50%" y2="6.403%" id="linearGradient-6"><stop stop-color="#000" stop-opacity=".901" offset="0%"/><stop stop-color="#000" stop-opacity="0" offset="100%"/></linearGradient><linearGradient x1="50%" y1="100%" x2="50%" y2="92.931%" id="linearGradient-7"><stop stop-color="#000" stop-opacity=".9" offset="0%"/><stop stop-color="#000" stop-opacity="0" offset="100%"/></linearGradient><path d="M1268.77142,163.856366 C1244.41497,74.5543828 1175.59294,28 1052,28 L227,28 C103.407061,28 34.5850283,74.5543828 10.2285837,163.856366 C27.3589879,64.0445206 96.9729782,19 227,19 L1052,19 C1182.02702,19 1251.64101,64.0445206 1268.77142,163.856366 Z M1270.03399,2415.46742 C1254.87446,2519.24666 1181.6721,2571 1052,2571 L227,2571 C94.6975958,2571 24.9410951,2524.40383 9.37744619,2420.93554 C32.9538557,2512.33036 101.935431,2560 227,2560 L1052,2560 C1174.69578,2560 1246.22286,2507.96386 1270.03399,2415.4674 Z" id="path-8"/><filter x="0%" y="0%" width="100%" height="100%" filterUnits="objectBoundingBox" id="filter-9"><feGaussianBlur stdDeviation="0" in="SourceGraphic"/></filter><linearGradient x1="50%" y1="0%" x2="50%" y2="6.403%" id="linearGradient-10"><stop stop-color="#000" stop-opacity=".5" offset="0%"/><stop stop-color="#000" stop-opacity="0" offset="100%"/></linearGradient><linearGradient x1="50%" y1="100%" x2="50%" y2="92.931%" id="linearGradient-11"><stop stop-color="#000" stop-opacity=".5" offset="0%"/><stop stop-color="#000" stop-opacity="0" offset="100%"/></linearGradient><path d="M227,28 L1052,28 C1210.59096,28 1279,104.653165 1279,249.916602 L1279,2338.0834 C1279,2478.4588 1205.59096,2560 1052,2560 L227,2560 C68.4090433,2560 0,2483.34683 0,2338.0834 L0,249.916602 C0,104.653165 68.4090433,28 227,28 Z" id="path-12"/><filter x="0%" y="0%" width="100%" height="100%" filterUnits="objectBoundingBox" id="filter-13"><feGaussianBlur stdDeviation="0" in="SourceGraphic"/></filter><linearGradient x1="50%" y1="0%" x2="50%" y2="100%" id="linearGradient-14"><stop stop-color="#5F5F5F" offset="0%"/><stop stop-color="#222" offset="1.012%"/><stop stop-color="#252525" offset="100%"/></linearGradient><linearGradient x1="50%" y1="0%" x2="50%" y2="100%" id="linearGradient-15"><stop stop-color="#6D6D6D" offset="0%"/><stop stop-color="#000" offset="1.612%"/><stop stop-color="#000" offset="98.47%"/><stop stop-color="#5C5C5C" offset="100%"/></linearGradient><radialGradient cx="47.648%" cy="98.993%" fx="47.648%" fy="98.993%" r="60.201%" gradientTransform="translate(0.476479,0.989929),scale(1.000000,0.480998),rotate(90.000000),scale(1.000000,0.730042),translate(-0.476479,-0.989929)" id="radialGradient-16"><stop stop-color="#FFF" stop-opacity=".151" offset="0%"/><stop stop-color="#FFF" stop-opacity="0" offset="100%"/></radialGradient><path d="M227,31 L1052,31 C1188.04015,31 1247,90.0729551 1247,226 L1247,2362 C1247,2492.91468 1183.04906,2557 1052,2557 L227,2557 C90.9598509,2557 32,2497.92704 32,2362 L32,226 C32,90.0729551 90.9598509,31 227,31 Z" id="path-17"/><path d="M20,0 C47,0 102.771973,0 130,0 C140,0 146.666667,1.33333333 150,4 L0,4 C3.33333333,1.33333333 10,0 20,0 Z" id="path-18"/><filter x="-1%" y="-37.5%" width="102%" height="175%" filterUnits="objectBoundingBox" id="filter-19"><feGaussianBlur stdDeviation="1" in="SourceAlpha" result="shadowBlurInner1"/><feOffset dx="0" dy="1" in="shadowBlurInner1" result="shadowOffsetInner1"/><feComposite in="shadowOffsetInner1" in2="SourceAlpha" operator="arithmetic" k2="-1" k3="1" result="shadowInnerInner1"/><feColorMatrix values="0 0 0 0 0.592156863 0 0 0 0 0.592156863 0 0 0 0 0.592156863 0 0 0 1 0" type="matrix" in="shadowInnerInner1"/></filter><path d="M-5.68468883e-14,0.654217384 C61.9408305,27.1636477 89.945405,84.3768865 89.945405,178.118429 L89.945405,2315.54482 C89.945405,2403.70142 60.9853043,2461.57422 2.10602974,2490 C2.10602974,2486.83789 67.945405,2443.0811 67.945405,2325.5515 C67.945405,2268.68149 67.945405,231.513436 67.945405,167.920217 C67.945405,43.9396875 -5.68468883e-14,0.654217384 -5.68468883e-14,0.654217384 Z" id="path-20"/><filter x="-15.6%" y="-.6%" width="131.1%" height="101.1%" filterUnits="objectBoundingBox" id="filter-21"><feGaussianBlur stdDeviation="8.5" in="SourceAlpha" result="shadowBlurInner1"/><feOffset dx="11" dy="0" in="shadowBlurInner1" result="shadowOffsetInner1"/><feComposite in="shadowOffsetInner1" in2="SourceAlpha" operator="arithmetic" k2="-1" k3="1" result="shadowInnerInner1"/><feColorMatrix values="0 0 0 0 0 0 0 0 0 0 0 0 0 0 0 0 0 0 0.6 0" type="matrix" in="shadowInnerInner1"/></filter><path d="M1125.05,0.654217384 C1186.99083,27.1636477 1214.99541,84.3768865 1214.99541,178.118429 L1214.99541,2315.54482 C1214.99541,2403.70142 1186.0353,2461.57422 1127.15603,2490 C1127.15603,2486.83789 1192.99541,2443.0811 1192.99541,2325.5515 C1192.99541,2268.68149 1192.99541,231.513436 1192.99541,167.920217 C1192.99541,43.9396875 1125.05,0.654217384 1125.05,0.654217384 Z" id="path-22"/><filter x="-15.6%" y="-.6%" width="131.1%" height="101.1%" filterUnits="objectBoundingBox" id="filter-23"><feGaussianBlur stdDeviation="8.5" in="SourceAlpha" result="shadowBlurInner1"/><feOffset dx="11" dy="0" in="shadowBlurInner1" result="shadowOffsetInner1"/><feComposite in="shadowOffsetInner1" in2="SourceAlpha" operator="arithmetic" k2="-1" k3="1" result="shadowInnerInner1"/><feColorMatrix values="0 0 0 0 0 0 0 0 0 0 0 0 0 0 0 0 0 0 0.6 0" type="matrix" in="shadowInnerInner1"/></filter><linearGradient x1="27.182%" y1="44.984%" x2="54.669%" y2="44.984%" id="linearGradient-24"><stop stop-color="#A5A5A5" offset="0%"/><stop stop-color="#E2E2E2" offset=".735%"/><stop stop-color="#BEBEBE" offset="99.474%"/><stop stop-color="#9D9D9D" offset="100%"/></linearGradient><path d="M6.98099398,0 C3.12549747,0 0,3.13400675 0,7 L0,93 C0,96.8659932 3.12549747,100 6.98099398,100 L10.9701334,100 C10.9701334,94.7402344 11.0373333,5.14160156 10.9701334,0 L6.98099398,0 Z" id="path-25"/><filter x="-40.9%" y="-4.5%" width="181.8%" height="109%" filterUnits="objectBoundingBox" id="filter-26"><feGaussianBlur stdDeviation="1.5" in="SourceAlpha" result="shadowBlurInner1"/><feOffset dx="0" dy="6" in="shadowBlurInner1" result="shadowOffsetInner1"/><feComposite in="shadowOffsetInner1" in2="SourceAlpha" operator="arithmetic" k2="-1" k3="1" result="shadowInnerInner1"/><feColorMatrix values="0 0 0 0 0 0 0 0 0 0 0 0 0 0 0 0 0 0 0.757614357 0" type="matrix" in="shadowInnerInner1" result="shadowMatrixInner1"/><feGaussianBlur stdDeviation="1.5" in="SourceAlpha" result="shadowBlurInner2"/><feOffset dx="0" dy="-6" in="shadowBlurInner2" result="shadowOffsetInner2"/><feComposite in="shadowOffsetInner2" in2="SourceAlpha" operator="arithmetic" k2="-1" k3="1" result="shadowInnerInner2"/><feColorMatrix values="0 0 0 0 0 0 0 0 0 0 0 0 0 0 0 0 0 0 0.757614357 0" type="matrix" in="shadowInnerInner2" result="shadowMatrixInner2"/><feMerge><feMergeNode in="shadowMatrixInner1"/><feMergeNode in="shadowMatrixInner2"/></feMerge></filter><path d="M6.98099398,183 C4.7112355,183.55883 1.98945725,184.98988 0.536131425,187.022595 C0.23678211,187.441284 0,188.765951 0,189.148926 C0,208.368873 0,266.909726 0,364.771484 C0,365.180303 0.333278995,367.245605 0.537344187,367.74646 C1.71341602,370.632999 3.75686165,371.331299 6.98099398,373 L10.9701334,373 C10.9701334,367.740234 11.0373333,188.141602 10.9701334,183 L6.98099398,183 Z" id="path-27"/><filter x="-40.9%" y="-2.4%" width="181.8%" height="104.7%" filterUnits="objectBoundingBox" id="filter-28"><feGaussianBlur stdDeviation="1.5" in="SourceAlpha" result="shadowBlurInner1"/><feOffset dx="0" dy="6" in="shadowBlurInner1" result="shadowOffsetInner1"/><feComposite in="shadowOffsetInner1" in2="SourceAlpha" operator="arithmetic" k2="-1" k3="1" result="shadowInnerInner1"/><feColorMatrix values="0 0 0 0 0 0 0 0 0 0 0 0 0 0 0 0 0 0 0.757614357 0" type="matrix" in="shadowInnerInner1" result="shadowMatrixInner1"/><feGaussianBlur stdDeviation="1.5" in="SourceAlpha" result="shadowBlurInner2"/><feOffset dx="0" dy="-6" in="shadowBlurInner2" result="shadowOffsetInner2"/><feComposite in="shadowOffsetInner2" in2="SourceAlpha" operator="arithmetic" k2="-1" k3="1" result="shadowInnerInner2"/><feColorMatrix values="0 0 0 0 0 0 0 0 0 0 0 0 0 0 0 0 0 0 0.757614357 0" type="matrix" in="shadowInnerInner2" result="shadowMatrixInner2"/><feMerge><feMergeNode in="shadowMatrixInner1"/><feMergeNode in="shadowMatrixInner2"/></feMerge></filter><path d="M6.98099398,420 C4.7112355,420.55883 1.98945725,421.98988 0.536131425,424.022595 C0.23678211,424.441284 0,425.765951 0,426.148926 C0,445.368873 0,503.909726 0,601.771484 C0,602.180303 0.333278995,604.245605 0.537344187,604.74646 C1.71341602,607.632999 3.75686165,608.331299 6.98099398,610 L10.9701334,610 C10.9701334,604.740234 11.0373333,425.141602 10.9701334,420 L6.98099398,420 Z" id="path-29"/><filter x="-40.9%" y="-2.4%" width="181.8%" height="104.7%" filterUnits="objectBoundingBox" id="filter-30"><feGaussianBlur stdDeviation="1.5" in="SourceAlpha" result="shadowBlurInner1"/><feOffset dx="0" dy="6" in="shadowBlurInner1" result="shadowOffsetInner1"/><feComposite in="shadowOffsetInner1" in2="SourceAlpha" operator="arithmetic" k2="-1" k3="1" result="shadowInnerInner1"/><feColorMatrix values="0 0 0 0 0 0 0 0 0 0 0 0 0 0 0 0 0 0 0.757614357 0" type="matrix" in="shadowInnerInner1" result="shadowMatrixInner1"/><feGaussianBlur stdDeviation="1.5" in="SourceAlpha" result="shadowBlurInner2"/><feOffset dx="0" dy="-6" in="shadowBlurInner2" result="shadowOffsetInner2"/><feComposite in="shadowOffsetInner2" in2="SourceAlpha" operator="arithmetic" k2="-1" k3="1" result="shadowInnerInner2"/><feColorMatrix values="0 0 0 0 0 0 0 0 0 0 0 0 0 0 0 0 0 0 0.757614357 0" type="matrix" in="shadowInnerInner2" result="shadowMatrixInner2"/><feMerge><feMergeNode in="shadowMatrixInner1"/><feMergeNode in="shadowMatrixInner2"/></feMerge></filter><linearGradient x1="34.549%" y1="44.984%" x2="36.094%" y2="44.984%" id="linearGradient-31"><stop stop-color="#8E8E8E" offset="0%"/><stop stop-color="#BCBCBC" offset="100%"/></linearGradient><linearGradient x1="50%" y1="0%" x2="50%" y2="100%" id="linearGradient-32"><stop stop-color="#000" stop-opacity=".997" offset="0%"/><stop stop-color="#000" stop-opacity="0" offset="9.512%"/><stop stop-color="#000" stop-opacity="0" offset="89.546%"/><stop stop-color="#000" stop-opacity=".881" offset="100%"/></linearGradient><path d="M1290.98099,245 C1288.71124,245.55883 1285.98946,246.98988 1284.53613,249.022595 C1284.23678,249.441284 1284,250.765951 1284,251.148926 C1284,270.368873 1284,440.909726 1284,538.771484 C1284,539.180303 1284.33328,541.245605 1284.53734,541.74646 C1285.71342,544.632999 1287.75686,545.331299 1290.98099,547 L1294.97013,547 C1294.97013,541.740234 1295.03733,250.141602 1294.97013,245 L1290.98099,245 Z" id="path-33"/><filter x="-40.9%" y="-1.5%" width="181.8%" height="103%" filterUnits="objectBoundingBox" id="filter-34"><feGaussianBlur stdDeviation="1.5" in="SourceAlpha" result="shadowBlurInner1"/><feOffset dx="0" dy="6" in="shadowBlurInner1" result="shadowOffsetInner1"/><feComposite in="shadowOffsetInner1" in2="SourceAlpha" operator="arithmetic" k2="-1" k3="1" result="shadowInnerInner1"/><feColorMatrix values="0 0 0 0 0 0 0 0 0 0 0 0 0 0 0 0 0 0 0.757614357 0" type="matrix" in="shadowInnerInner1" result="shadowMatrixInner1"/><feGaussianBlur stdDeviation="1.5" in="SourceAlpha" result="shadowBlurInner2"/><feOffset dx="0" dy="-6" in="shadowBlurInner2" result="shadowOffsetInner2"/><feComposite in="shadowOffsetInner2" in2="SourceAlpha" operator="arithmetic" k2="-1" k3="1" result="shadowInnerInner2"/><feColorMatrix values="0 0 0 0 0 0 0 0 0 0 0 0 0 0 0 0 0 0 0.757614357 0" type="matrix" in="shadowInnerInner2" result="shadowMatrixInner2"/><feMerge><feMergeNode in="shadowMatrixInner1"/><feMergeNode in="shadowMatrixInner2"/></feMerge></filter><rect id="path-35" x="0" y="0" width="156" height="21" rx="10.5"/><rect id="path-37" x="0" y="0" width="156" height="21" rx="10.5"/><filter x="-2.6%" y="-19%" width="105.1%" height="138.1%" filterUnits="objectBoundingBox" id="filter-39"><feMorphology radius="4" operator="erode" in="SourceAlpha" result="shadowSpreadInner1"/><feGaussianBlur stdDeviation="2" in="shadowSpreadInner1" result="shadowBlurInner1"/><feOffset dx="0" dy="0" in="shadowBlurInner1" result="shadowOffsetInner1"/><feComposite in="shadowOffsetInner1" in2="SourceAlpha" operator="arithmetic" k2="-1" k3="1" result="shadowInnerInner1"/><feColorMatrix values="0 0 0 0 0 0 0 0 0 0 0 0 0 0 0 0 0 0 0.7950351 0" type="matrix" in="shadowInnerInner1" result="shadowMatrixInner1"/><feOffset dx="0" dy="-4" in="SourceAlpha" result="shadowOffsetInner2"/><feComposite in="shadowOffsetInner2" in2="SourceAlpha" operator="arithmetic" k2="-1" k3="1" result="shadowInnerInner2"/><feColorMatrix values="0 0 0 0 0 0 0 0 0 0 0 0 0 0 0 0 0 0 0.800130208 0" type="matrix" in="shadowInnerInner2" result="shadowMatrixInner2"/><feOffset dx="0" dy="-2" in="SourceAlpha" result="shadowOffsetInner3"/><feComposite in="shadowOffsetInner3" in2="SourceAlpha" operator="arithmetic" k2="-1" k3="1" result="shadowInnerInner3"/><feColorMatrix values="0 0 0 0 1 0 0 0 0 1 0 0 0 0 1 0 0 0 0.197067482 0" type="matrix" in="shadowInnerInner3" result="shadowMatrixInner3"/><feMerge><feMergeNode in="shadowMatrixInner1"/><feMergeNode in="shadowMatrixInner2"/><feMergeNode in="shadowMatrixInner3"/></feMerge></filter><radialGradient cx="121.058%" cy="134.126%" fx="121.058%" fy="134.126%" r="100.661%" id="radialGradient-40"><stop stop-color="#434343" offset="0%"/><stop stop-color="#121212" offset="100%"/></radialGradient><radialGradient cx="50%" cy="0%" fx="50%" fy="0%" r="100%" id="radialGradient-41"><stop stop-color="#2A4893" offset="0%"/><stop stop-color="#213054" offset="100%"/></radialGradient><circle id="path-42" cx="19" cy="19" r="10"/><filter x="-75%" y="-75%" width="250%" height="250%" filterUnits="objectBoundingBox" id="filter-44"><feMorphology radius="2.5" operator="dilate" in="SourceAlpha" result="shadowSpreadOuter1"/><feOffset dx="0" dy="0" in="shadowSpreadOuter1" result="shadowOffsetOuter1"/><feGaussianBlur stdDeviation="2.5" in="shadowOffsetOuter1" result="shadowBlurOuter1"/><feColorMatrix values="0 0 0 0 0 0 0 0 0 0 0 0 0 0 0 0 0 0 0.4 0" type="matrix" in="shadowBlurOuter1" result="shadowMatrixOuter1"/><feMorphology radius="1" operator="dilate" in="SourceAlpha" result="shadowSpreadOuter2"/><feOffset dx="0" dy="0" in="shadowSpreadOuter2" result="shadowOffsetOuter2"/><feColorMatrix values="0 0 0 0 0 0 0 0 0 0 0 0 0 0 0 0 0 0 1 0" type="matrix" in="shadowOffsetOuter2" result="shadowMatrixOuter2"/><feMerge><feMergeNode in="shadowMatrixOuter1"/><feMergeNode in="shadowMatrixOuter2"/></feMerge></filter><filter x="-36.3%" y="-108.3%" width="172.6%" height="316.7%" filterUnits="objectBoundingBox" id="filter-45"><feGaussianBlur stdDeviation="2" in="SourceGraphic"/></filter><filter x="-50%" y="-40%" width="200%" height="180%" filterUnits="objectBoundingBox" id="filter-46"><feGaussianBlur stdDeviation="2" in="SourceGraphic"/></filter><filter x="-25.3%" y="-38.8%" width="150.6%" height="177.6%" filterUnits="objectBoundingBox" id="filter-47"><feGaussianBlur stdDeviation="1.502" in="SourceGraphic"/></filter><path d="M876,26 L876,27 C876,54.7939392 854.793939,90 806,90 L320,90 C271.206061,90 250,54.7939392 250,27 L250,25.9999936 C250,13.1450152 249.999996,1.42108547e-14 227.000025,0 L130,0 C48.934969,0 0,48.934969 0,130 L0,2306 C0,2387.06503 48.934969,2436 130,2436 L995,2436 C1076.06503,2436 1125,2387.06503 1125,2306 L1125,130 C1125,48.934969 1076.06503,0 995,0 L899,0 C876,0 876,13.1450195 876,26 Z" id="path-48"/></defs><g id="apple-iphone_xs-space_gray" stroke="none" stroke-width="1" fill="none" fill-rule="evenodd"><mask id="mask-2" fill="#fff"><use xlink:href="#path-1"/></mask><g id="Apple-iPhone-XS-Space-Grey" mask="url(#mask-2)"><g id="Device"><g id="Body"><g id="Phone-Shape" transform="translate(8.000000, 0.000000)"><path d="M227,0 L1052,0 C1210.59096,0 1279,78.4090433 1279,227 L1279,2363 C1279,2506.59096 1205.59096,2590 1052,2590 L227,2590 C68.4090433,2590 0,2511.59096 0,2363 L0,227 C0,78.4090433 68.4090433,0 227,0 Z" id="Device-Shape" fill="#000"/><g id="Metal-Band"><use fill="#C9C6C8" fill-rule="evenodd" xlink:href="#path-4"/><use fill="url(#linearGradient-3)" fill-rule="evenodd" xlink:href="#path-4"/><use fill="#000" fill-opacity="1" filter="url(#filter-5)" xlink:href="#path-4"/></g><g id="Reflection" filter="url(#filter-9)"><use fill="url(#linearGradient-6)" xlink:href="#path-8"/><use fill="url(#linearGradient-7)" xlink:href="#path-8"/></g><g id="Reflection" filter="url(#filter-13)"><use fill="url(#linearGradient-10)" xlink:href="#path-12"/><use fill="url(#linearGradient-11)" xlink:href="#path-12"/></g><path d="M227,20.5 C84.6036374,20.5 20.5,84.726609 20.5,227 L20.5,2363 C20.5,2505.27339 84.6036374,2569.5 227,2569.5 L1052,2569.5 C1189.40575,2569.5 1258.5,2500.26056 1258.5,2363 L1258.5,227 C1258.5,84.726609 1194.39636,20.5 1052,20.5 L227,20.5 Z" id="Glass" stroke="#000" stroke-width="3" fill="url(#linearGradient-14)"/><g id="Glass"><use fill="url(#linearGradient-15)" xlink:href="#path-17"/><use fill="url(#radialGradient-16)" xlink:href="#path-17"/></g><path d="M227,51 C102.050943,51 52,101.073234 52,226 L52,2362 C52,2486.92677 102.050943,2537 227,2537 L1052,2537 C1171.95047,2537 1227,2481.9219 1227,2362 L1227,226 C1227,101.073234 1176.94906,51 1052,51 L227,51 Z" id="Glass" fill="#000" fill-rule="nonzero"/></g><g id="Plug"><g transform="translate(573.000000, 2586.000000)"><use fill="#343434" fill-rule="evenodd" xlink:href="#path-18"/><use fill="#000" fill-opacity="1" filter="url(#filter-19)" xlink:href="#path-18"/></g></g><g id="Glass-Glare" transform="translate(40.000000, 48.000000)"><g id="Glare" transform="translate(44.972703, 1245.327109) scale(-1, 1) translate(-44.972703, -1245.327109)"><use fill-opacity=".6" fill="#FFF" fill-rule="evenodd" xlink:href="#path-20"/><use fill="#000" fill-opacity="1" filter="url(#filter-21)" xlink:href="#path-20"/></g><g id="Glare"><use fill-opacity=".6" fill="#FFF" fill-rule="evenodd" xlink:href="#path-22"/><use fill="#000" fill-opacity="1" filter="url(#filter-23)" xlink:href="#path-22"/></g></g><g id="Antenna-Bands" transform="translate(8.000000, 0.000000)" fill="#000" opacity=".603"><rect id="Antenna-Band" x="0" y="248" width="22" height="18"/><rect id="Antenna-Band" x="1257" y="248" width="22" height="18"/><rect id="Antenna-Band" transform="translate(1022.000000, 11.000000) rotate(-90.000000) translate(-1022.000000, -11.000000)" x="1011" y="2" width="22" height="18"/><rect id="Antenna-Band" transform="translate(257.000000, 2579.000000) rotate(-90.000000) translate(-257.000000, -2579.000000)" x="246" y="2570" width="22" height="18"/><rect id="Antenna-Band" x="0" y="2324" width="22" height="18"/><rect id="Antenna-Band" x="1257" y="2324" width="22" height="18"/></g><g id="Buttons" transform="translate(0.000000, 350.000000)"><g id="Mute"><use fill="url(#linearGradient-24)" fill-rule="evenodd" xlink:href="#path-25"/><use fill="#000" fill-opacity="1" filter="url(#filter-26)" xlink:href="#path-25"/></g><g id="Volume"><use fill="url(#linearGradient-24)" fill-rule="evenodd" xlink:href="#path-27"/><use fill="#000" fill-opacity="1" filter="url(#filter-28)" xlink:href="#path-27"/></g><g id="Volume"><use fill="url(#linearGradient-24)" fill-rule="evenodd" xlink:href="#path-29"/><use fill="#000" fill-opacity="1" filter="url(#filter-30)" xlink:href="#path-29"/></g><g id="Siri" transform="translate(1289.500000, 396.000000) scale(-1, 1) translate(-1289.500000, -396.000000)"><use fill="url(#linearGradient-31)" fill-rule="evenodd" xlink:href="#path-33"/><use fill="url(#linearGradient-32)" fill-rule="evenodd" xlink:href="#path-33"/><use fill="#000" fill-opacity="1" filter="url(#filter-34)" xlink:href="#path-33"/></g></g></g><g id="Front" transform="translate(570.000000, 84.000000)"><g id="Speaker" opacity=".801" transform="translate(0.000000, 9.000000)"><mask id="mask-36" fill="#fff"><use xlink:href="#path-35"/></mask><use id="Mask" fill="#1D1C1C" xlink:href="#path-35"/><path d="M0,0 L156,0 L156,1.42857143 L0,1.42857143 L0,0 Z M0,4.28571429 L156,4.28571429 L156,5.71428571 L0,5.71428571 L0,4.28571429 Z M0,8.57142857 L156,8.57142857 L156,10 L0,10 L0,8.57142857 Z M0,12.8571429 L156,12.8571429 L156,14.2857143 L0,14.2857143 L0,12.8571429 Z M0,17.1428571 L156,17.1428571 L156,18.5714286 L0,18.5714286 L0,17.1428571 Z" id="Grid" fill-opacity=".15" fill="#000" mask="url(#mask-36)"/><path d="M0,3 L156,3 L156,4.42857143 L0,4.42857143 L0,3 Z M0,7.28571429 L156,7.28571429 L156,8.71428571 L0,8.71428571 L0,7.28571429 Z M0,11.5714286 L156,11.5714286 L156,13 L0,13 L0,11.5714286 Z M0,15.8571429 L156,15.8571429 L156,17.2857143 L0,17.2857143 L0,15.8571429 Z M0,20.1428571 L156,20.1428571 L156,21.5714286 L0,21.5714286 L0,20.1428571 Z" id="Grid" fill-opacity=".03" fill="#FFF" mask="url(#mask-36)"/><path d="M1.66911765,-1.42857143 L3.33823529,-1.42857143 L3.33823529,22.8571429 L1.66911765,22.8571429 L1.66911765,-1.42857143 Z M6.67647059,-1.42857143 L8.34558824,-1.42857143 L8.34558824,22.8571429 L6.67647059,22.8571429 L6.67647059,-1.42857143 Z M11.6838235,-1.42857143 L13.3529412,-1.42857143 L13.3529412,22.8571429 L11.6838235,22.8571429 L11.6838235,-1.42857143 Z M16.6911765,-1.42857143 L18.3602941,-1.42857143 L18.3602941,22.8571429 L16.6911765,22.8571429 L16.6911765,-1.42857143 Z M21.6985294,-1.42857143 L23.3676471,-1.42857143 L23.3676471,22.8571429 L21.6985294,22.8571429 L21.6985294,-1.42857143 Z M26.7058824,-1.42857143 L28.375,-1.42857143 L28.375,22.8571429 L26.7058824,22.8571429 L26.7058824,-1.42857143 Z M31.7132353,-1.42857143 L33.3823529,-1.42857143 L33.3823529,22.8571429 L31.7132353,22.8571429 L31.7132353,-1.42857143 Z M36.7205882,-1.42857143 L38.3897059,-1.42857143 L38.3897059,22.8571429 L36.7205882,22.8571429 L36.7205882,-1.42857143 Z M41.7279412,-1.42857143 L43.3970588,-1.42857143 L43.3970588,22.8571429 L41.7279412,22.8571429 L41.7279412,-1.42857143 Z M46.7352941,-1.42857143 L48.4044118,-1.42857143 L48.4044118,22.8571429 L46.7352941,22.8571429 L46.7352941,-1.42857143 Z M51.7426471,-1.42857143 L53.4117647,-1.42857143 L53.4117647,22.8571429 L51.7426471,22.8571429 L51.7426471,-1.42857143 Z M56.75,-1.42857143 L58.4191176,-1.42857143 L58.4191176,22.8571429 L56.75,22.8571429 L56.75,-1.42857143 Z M61.7573529,-1.42857143 L63.4264706,-1.42857143 L63.4264706,22.8571429 L61.7573529,22.8571429 L61.7573529,-1.42857143 Z M66.7647059,-1.42857143 L68.4338235,-1.42857143 L68.4338235,22.8571429 L66.7647059,22.8571429 L66.7647059,-1.42857143 Z M71.7720588,-1.42857143 L73.4411765,-1.42857143 L73.4411765,22.8571429 L71.7720588,22.8571429 L71.7720588,-1.42857143 Z M76.7794118,-1.42857143 L78.4485294,-1.42857143 L78.4485294,22.8571429 L76.7794118,22.8571429 L76.7794118,-1.42857143 Z M81.7867647,-1.42857143 L83.4558824,-1.42857143 L83.4558824,22.8571429 L81.7867647,22.8571429 L81.7867647,-1.42857143 Z M86.7941176,-1.42857143 L88.4632353,-1.42857143 L88.4632353,22.8571429 L86.7941176,22.8571429 L86.7941176,-1.42857143 Z M91.8014706,-1.42857143 L93.4705882,-1.42857143 L93.4705882,22.8571429 L91.8014706,22.8571429 L91.8014706,-1.42857143 Z M96.8088235,-1.42857143 L98.4779412,-1.42857143 L98.4779412,22.8571429 L96.8088235,22.8571429 L96.8088235,-1.42857143 Z M101.816176,-1.42857143 L103.485294,-1.42857143 L103.485294,22.8571429 L101.816176,22.8571429 L101.816176,-1.42857143 Z M106.823529,-1.42857143 L108.492647,-1.42857143 L108.492647,22.8571429 L106.823529,22.8571429 L106.823529,-1.42857143 Z M111.830882,-1.42857143 L113.5,-1.42857143 L113.5,22.8571429 L111.830882,22.8571429 L111.830882,-1.42857143 Z M116.838235,-1.42857143 L118.507353,-1.42857143 L118.507353,22.8571429 L116.838235,22.8571429 L116.838235,-1.42857143 Z M121.845588,-1.42857143 L123.514706,-1.42857143 L123.514706,22.8571429 L121.845588,22.8571429 L121.845588,-1.42857143 Z M126.852941,-1.42857143 L128.522059,-1.42857143 L128.522059,22.8571429 L126.852941,22.8571429 L126.852941,-1.42857143 Z M131.860294,-1.42857143 L133.529412,-1.42857143 L133.529412,22.8571429 L131.860294,22.8571429 L131.860294,-1.42857143 Z M136.867647,-1.42857143 L138.536765,-1.42857143 L138.536765,22.8571429 L136.867647,22.8571429 L136.867647,-1.42857143 Z M141.875,-1.42857143 L143.544118,-1.42857143 L143.544118,22.8571429 L141.875,22.8571429 L141.875,-1.42857143 Z M146.882353,-1.42857143 L148.551471,-1.42857143 L148.551471,22.8571429 L146.882353,22.8571429 L146.882353,-1.42857143 Z M151.889706,-1.42857143 L153.558824,-1.42857143 L153.558824,22.8571429 L151.889706,22.8571429 L151.889706,-1.42857143 Z" id="Grid" fill-opacity=".15" fill="#000" mask="url(#mask-36)"/><path d="M-1.33088235,-1.42857143 L0.338235294,-1.42857143 L0.338235294,22.8571429 L-1.33088235,22.8571429 L-1.33088235,-1.42857143 Z M3.67647059,-1.42857143 L5.34558824,-1.42857143 L5.34558824,22.8571429 L3.67647059,22.8571429 L3.67647059,-1.42857143 Z M8.68382353,-1.42857143 L10.3529412,-1.42857143 L10.3529412,22.8571429 L8.68382353,22.8571429 L8.68382353,-1.42857143 Z M13.6911765,-1.42857143 L15.3602941,-1.42857143 L15.3602941,22.8571429 L13.6911765,22.8571429 L13.6911765,-1.42857143 Z M18.6985294,-1.42857143 L20.3676471,-1.42857143 L20.3676471,22.8571429 L18.6985294,22.8571429 L18.6985294,-1.42857143 Z M23.7058824,-1.42857143 L25.375,-1.42857143 L25.375,22.8571429 L23.7058824,22.8571429 L23.7058824,-1.42857143 Z M28.7132353,-1.42857143 L30.3823529,-1.42857143 L30.3823529,22.8571429 L28.7132353,22.8571429 L28.7132353,-1.42857143 Z M33.7205882,-1.42857143 L35.3897059,-1.42857143 L35.3897059,22.8571429 L33.7205882,22.8571429 L33.7205882,-1.42857143 Z M38.7279412,-1.42857143 L40.3970588,-1.42857143 L40.3970588,22.8571429 L38.7279412,22.8571429 L38.7279412,-1.42857143 Z M43.7352941,-1.42857143 L45.4044118,-1.42857143 L45.4044118,22.8571429 L43.7352941,22.8571429 L43.7352941,-1.42857143 Z M48.7426471,-1.42857143 L50.4117647,-1.42857143 L50.4117647,22.8571429 L48.7426471,22.8571429 L48.7426471,-1.42857143 Z M53.75,-1.42857143 L55.4191176,-1.42857143 L55.4191176,22.8571429 L53.75,22.8571429 L53.75,-1.42857143 Z M58.7573529,-1.42857143 L60.4264706,-1.42857143 L60.4264706,22.8571429 L58.7573529,22.8571429 L58.7573529,-1.42857143 Z M63.7647059,-1.42857143 L65.4338235,-1.42857143 L65.4338235,22.8571429 L63.7647059,22.8571429 L63.7647059,-1.42857143 Z M68.7720588,-1.42857143 L70.4411765,-1.42857143 L70.4411765,22.8571429 L68.7720588,22.8571429 L68.7720588,-1.42857143 Z M73.7794118,-1.42857143 L75.4485294,-1.42857143 L75.4485294,22.8571429 L73.7794118,22.8571429 L73.7794118,-1.42857143 Z M78.7867647,-1.42857143 L80.4558824,-1.42857143 L80.4558824,22.8571429 L78.7867647,22.8571429 L78.7867647,-1.42857143 Z M83.7941176,-1.42857143 L85.4632353,-1.42857143 L85.4632353,22.8571429 L83.7941176,22.8571429 L83.7941176,-1.42857143 Z M88.8014706,-1.42857143 L90.4705882,-1.42857143 L90.4705882,22.8571429 L88.8014706,22.8571429 L88.8014706,-1.42857143 Z M93.8088235,-1.42857143 L95.4779412,-1.42857143 L95.4779412,22.8571429 L93.8088235,22.8571429 L93.8088235,-1.42857143 Z M98.8161765,-1.42857143 L100.485294,-1.42857143 L100.485294,22.8571429 L98.8161765,22.8571429 L98.8161765,-1.42857143 Z M103.823529,-1.42857143 L105.492647,-1.42857143 L105.492647,22.8571429 L103.823529,22.8571429 L103.823529,-1.42857143 Z M108.830882,-1.42857143 L110.5,-1.42857143 L110.5,22.8571429 L108.830882,22.8571429 L108.830882,-1.42857143 Z M113.838235,-1.42857143 L115.507353,-1.42857143 L115.507353,22.8571429 L113.838235,22.8571429 L113.838235,-1.42857143 Z M118.845588,-1.42857143 L120.514706,-1.42857143 L120.514706,22.8571429 L118.845588,22.8571429 L118.845588,-1.42857143 Z M123.852941,-1.42857143 L125.522059,-1.42857143 L125.522059,22.8571429 L123.852941,22.8571429 L123.852941,-1.42857143 Z M128.860294,-1.42857143 L130.529412,-1.42857143 L130.529412,22.8571429 L128.860294,22.8571429 L128.860294,-1.42857143 Z M133.867647,-1.42857143 L135.536765,-1.42857143 L135.536765,22.8571429 L133.867647,22.8571429 L133.867647,-1.42857143 Z M138.875,-1.42857143 L140.544118,-1.42857143 L140.544118,22.8571429 L138.875,22.8571429 L138.875,-1.42857143 Z M143.882353,-1.42857143 L145.551471,-1.42857143 L145.551471,22.8571429 L143.882353,22.8571429 L143.882353,-1.42857143 Z M148.889706,-1.42857143 L150.558824,-1.42857143 L150.558824,22.8571429 L148.889706,22.8571429 L148.889706,-1.42857143 Z" id="Grid" fill-opacity=".03" fill="#FFF" mask="url(#mask-36)"/><mask id="mask-38" fill="#fff"><use xlink:href="#path-37"/></mask><g id="Shadow" opacity=".244" fill="#000" fill-opacity="1"><use filter="url(#filter-39)" xlink:href="#path-37"/></g></g><g id="Camera" transform="translate(196.000000, 0.000000)"><circle id="Oval-" fill="url(#radialGradient-40)" cx="19" cy="19" r="19"/><mask id="mask-43" fill="#fff"><use xlink:href="#path-42"/></mask><g id="Mask" opacity=".388"><use fill="#000" fill-opacity="1" filter="url(#filter-44)" xlink:href="#path-42"/><use fill="url(#radialGradient-41)" fill-rule="evenodd" xlink:href="#path-42"/></g><path d="M12.68531,18.3542582 C16.346247,18.3542582 19.6862581,20.1431519 19.6862581,18.1727081 C19.6862581,16.2022642 19.5617676,15.766773 12.3356023,14.688695 C5.10943701,13.610617 3.16014937,17.393378 3.16014937,19.3638218 C3.16014937,21.3342656 9.02437294,18.3542582 12.68531,18.3542582 Z" id="Oval" fill="#3E89CC" filter="url(#filter-45)" mask="url(#mask-43)" transform="translate(11.423204, 17.268206) rotate(-76.000000) translate(-11.423204, -17.268206)"/><ellipse id="Oval" fill="#1C5894" filter="url(#filter-46)" mask="url(#mask-43)" cx="27" cy="16.5" rx="6" ry="7.5"/><ellipse id="Oval" fill="#0A152B" filter="url(#filter-47)" mask="url(#mask-43)" transform="translate(21.103259, 26.733405) rotate(-16.000000) translate(-21.103259, -26.733405)" cx="21.103" cy="26.733" rx="8.898" ry="5.807"/></g></g></g><g id="Screen" transform="translate(85.000000, 77.000000)"><mask id="mask-49" fill="#fff"><use xlink:href="#path-48"/></mask><rect fill="#1D2129" mask="url(#mask-49)" x="0" y="0" width="1125" height="2436"/></g></g></g></svg>